<svg width="241" height="65" viewBox="0 0 241 65" fill="none" xmlns="http://www.w3.org/2000/svg">
<g filter="url(#filter0_d_1_18)">
<path d="M34.956 18.8C34.956 19.152 34.476 19.328 33.516 19.328C33.164 19.328 32.7 19.28 32.124 19.184C31.548 19.088 30.476 18.944 28.908 18.752C27.34 18.56 25.66 18.464 23.868 18.464C22.108 18.464 20.508 18.944 19.068 19.904C17.628 20.832 16.412 22.032 15.42 23.504C14.46 24.976 13.708 26.624 13.164 28.448C12.652 30.272 12.396 32.064 12.396 33.824C12.396 37.024 13.132 39.52 14.604 41.312C16.076 43.104 18.124 44 20.748 44C25.484 44 29.116 42.32 31.644 38.96C32.412 37.936 33.036 36.8 33.516 35.552C31.18 35.264 29.388 34.4 28.14 32.96C26.892 31.488 26.268 29.696 26.268 27.584C26.268 25.44 26.86 23.744 28.044 22.496C29.228 21.248 30.812 20.624 32.796 20.624C34.812 20.624 36.348 21.392 37.404 22.928C38.492 24.432 39.036 26.336 39.036 28.64C39.036 29.44 39.004 30.192 38.94 30.896C39.516 30.64 39.996 30.368 40.38 30.08C40.764 29.792 41.148 29.648 41.532 29.648C42.172 29.648 42.492 29.92 42.492 30.464C42.492 31.584 42.108 32.56 41.34 33.392C40.604 34.192 39.612 34.8 38.364 35.216C37.404 39.888 35.356 43.584 32.22 46.304C29.116 49.024 25.084 50.384 20.124 50.384C15.164 50.384 11.292 48.88 8.508 45.872C6.076 43.216 4.86 39.808 4.86 35.648C4.86 32.832 5.308 30.112 6.204 27.488C7.132 24.864 8.428 22.544 10.092 20.528C11.788 18.512 13.836 16.896 16.236 15.68C18.636 14.464 21.324 13.856 24.3 13.856C27.308 13.856 29.836 14.384 31.884 15.44C33.932 16.496 34.956 17.616 34.956 18.8ZM33.42 24.848C32.748 24.848 32.412 25.392 32.412 26.48C32.412 28.4 33.18 29.792 34.716 30.656C34.812 29.792 34.86 28.896 34.86 27.968C34.86 25.888 34.38 24.848 33.42 24.848Z" fill="#AEA800"/>
<path d="M51.0424 37.28C52.6264 37.28 53.8824 37.744 54.8104 38.672C55.7544 39.584 56.2264 40.92 56.2264 42.68V50H54.5224V42.848C54.5224 41.536 54.1944 40.536 53.5384 39.848C52.8824 39.16 51.9464 38.816 50.7304 38.816C49.3704 38.816 48.2904 39.224 47.4904 40.04C46.7064 40.84 46.3144 41.952 46.3144 43.376V50H44.6104V37.376H46.2424V39.704C46.7064 38.936 47.3464 38.344 48.1624 37.928C48.9944 37.496 49.9544 37.28 51.0424 37.28ZM64.4046 50.12C63.2686 50.12 62.3886 49.8 61.7646 49.16C61.1566 48.52 60.8526 47.632 60.8526 46.496V32.192H62.5566V46.352C62.5566 47.104 62.7326 47.68 63.0846 48.08C63.4366 48.464 63.9646 48.656 64.6686 48.656C65.1166 48.656 65.5006 48.584 65.8206 48.44L65.9406 49.856C65.4446 50.032 64.9326 50.12 64.4046 50.12ZM68.2588 37.376H69.9628V50H68.2588V37.376ZM69.1228 34.616C68.7708 34.616 68.4748 34.496 68.2348 34.256C67.9948 34.016 67.8748 33.728 67.8748 33.392C67.8748 33.072 67.9948 32.792 68.2348 32.552C68.4748 32.312 68.7708 32.192 69.1228 32.192C69.4748 32.192 69.7708 32.312 70.0108 32.552C70.2508 32.776 70.3708 33.048 70.3708 33.368C70.3708 33.72 70.2508 34.016 70.0108 34.256C69.7708 34.496 69.4748 34.616 69.1228 34.616ZM81.1361 37.28C82.7201 37.28 83.9761 37.744 84.9041 38.672C85.8481 39.584 86.3201 40.92 86.3201 42.68V50H84.6161V42.848C84.6161 41.536 84.2881 40.536 83.6321 39.848C82.9761 39.16 82.0401 38.816 80.8241 38.816C79.4641 38.816 78.3841 39.224 77.5841 40.04C76.8001 40.84 76.4081 41.952 76.4081 43.376V50H74.7041V37.376H76.3361V39.704C76.8001 38.936 77.4401 38.344 78.2561 37.928C79.0881 37.496 80.0481 37.28 81.1361 37.28ZM96.3932 48.608C97.1772 48.608 97.8972 48.472 98.5532 48.2C99.2252 47.912 99.7932 47.496 100.257 46.952L101.217 48.056C100.657 48.728 99.9612 49.24 99.1292 49.592C98.2972 49.944 97.3772 50.12 96.3692 50.12C95.0732 50.12 93.9212 49.848 92.9132 49.304C91.9052 48.744 91.1212 47.976 90.5612 47C90.0012 46.024 89.7212 44.92 89.7212 43.688C89.7212 42.456 89.9852 41.352 90.5132 40.376C91.0572 39.4 91.8012 38.64 92.7452 38.096C93.6892 37.552 94.7612 37.28 95.9612 37.28C97.0812 37.28 98.0892 37.536 98.9852 38.048C99.8972 38.56 100.617 39.272 101.145 40.184C101.689 41.096 101.977 42.136 102.009 43.304L91.6412 45.32C91.9612 46.344 92.5372 47.152 93.3692 47.744C94.2172 48.32 95.2252 48.608 96.3932 48.608ZM95.9612 38.744C95.0812 38.744 94.2892 38.952 93.5852 39.368C92.8972 39.768 92.3532 40.336 91.9532 41.072C91.5692 41.792 91.3772 42.624 91.3772 43.568C91.3772 43.808 91.3852 43.984 91.4012 44.096L100.305 42.368C100.113 41.312 99.6252 40.448 98.8412 39.776C98.0572 39.088 97.0972 38.744 95.9612 38.744Z" fill="black"/>
</g>
<g filter="url(#filter1_d_1_18)">
<path d="M106.668 20.144C106.316 20.432 105.948 20.704 105.564 20.96C105.18 21.216 104.732 21.344 104.22 21.344C103.74 21.344 103.5 20.912 103.5 20.048C103.5 18.288 104.316 16.848 105.948 15.728C107.516 14.576 109.404 14 111.612 14C113.82 14 115.436 14.784 116.46 16.352C117.292 17.6 117.708 19.296 117.708 21.44C117.708 22.368 117.532 23.568 117.18 25.04C115.356 32.656 114.428 37.936 114.396 40.88C114.428 42.288 115.02 43.248 116.172 43.76C116.62 43.952 117.148 44.048 117.756 44.048C120.604 44.048 123.292 42.368 125.82 39.008C124.54 34.528 123.9 29.44 123.9 23.744C123.9 21.632 124.396 19.92 125.388 18.608C126.412 17.264 128.06 16.592 130.332 16.592C132.028 16.592 133.308 17.072 134.172 18.032C135.068 18.992 135.516 20.256 135.516 21.824C135.516 25.056 134.668 29.04 132.972 33.776C132.396 35.376 131.724 36.96 130.956 38.528C132.332 42.24 134.156 44.096 136.428 44.096C138.988 44.096 141.228 42.368 143.148 38.912C144.556 36.384 145.708 32.944 146.604 28.592C144.268 28.272 142.412 27.28 141.036 25.616C139.692 23.952 139.02 22.176 139.02 20.288C139.02 18.4 139.612 16.832 140.796 15.584C141.98 14.336 143.596 13.712 145.644 13.712C147.692 13.68 149.228 14.4 150.252 15.872C151.276 17.312 151.788 19.28 151.788 21.776V22.736C151.788 23.088 151.772 23.472 151.74 23.888C152.284 23.632 152.748 23.376 153.132 23.12C153.516 22.832 153.9 22.688 154.284 22.688C154.924 22.688 155.244 22.96 155.244 23.504C155.244 24.56 154.892 25.488 154.188 26.288C153.516 27.088 152.604 27.696 151.452 28.112C151.036 31.856 150.476 34.8 149.772 36.944C148.46 41.072 146.732 44.208 144.588 46.352C142.028 48.848 138.876 50.112 135.132 50.144C132.028 50.144 129.5 48.08 127.548 43.952C124.284 48.08 120.572 50.144 116.412 50.144C113.564 50.144 111.292 49.44 109.596 48.032C107.932 46.592 107.1 44.336 107.1 41.264C107.1 40.528 107.5 38.592 108.3 35.456C109.132 32.288 109.788 29.696 110.268 27.68C110.748 25.632 110.988 24.016 110.988 22.832C110.988 20.24 110.332 18.944 109.02 18.944C108.572 18.944 108.156 19.072 107.772 19.328C107.42 19.584 107.052 19.856 106.668 20.144ZM129.948 20.624C129.116 20.624 128.7 21.92 128.7 24.512C128.7 27.104 128.924 29.712 129.372 32.336C130.588 29.168 131.196 26.096 131.196 23.12C131.196 22.48 131.084 21.904 130.86 21.392C130.668 20.88 130.364 20.624 129.948 20.624ZM146.172 17.888C145.5 17.888 145.164 18.416 145.164 19.472C145.164 21.392 145.916 22.784 147.42 23.648C147.548 22.432 147.612 21.616 147.612 21.2C147.612 20.304 147.5 19.584 147.276 19.04C147.02 18.272 146.652 17.888 146.172 17.888Z" fill="#AEA800"/>
<path d="M160.635 48.608C161.419 48.608 162.139 48.472 162.795 48.2C163.467 47.912 164.035 47.496 164.499 46.952L165.459 48.056C164.899 48.728 164.203 49.24 163.371 49.592C162.539 49.944 161.619 50.12 160.611 50.12C159.315 50.12 158.163 49.848 157.155 49.304C156.147 48.744 155.363 47.976 154.803 47C154.243 46.024 153.963 44.92 153.963 43.688C153.963 42.456 154.227 41.352 154.755 40.376C155.299 39.4 156.043 38.64 156.987 38.096C157.931 37.552 159.003 37.28 160.203 37.28C161.323 37.28 162.331 37.536 163.227 38.048C164.139 38.56 164.859 39.272 165.387 40.184C165.931 41.096 166.219 42.136 166.251 43.304L155.883 45.32C156.203 46.344 156.779 47.152 157.611 47.744C158.459 48.32 159.467 48.608 160.635 48.608ZM160.203 38.744C159.323 38.744 158.531 38.952 157.827 39.368C157.139 39.768 156.595 40.336 156.195 41.072C155.811 41.792 155.619 42.624 155.619 43.568C155.619 43.808 155.627 43.984 155.643 44.096L164.547 42.368C164.355 41.312 163.867 40.448 163.083 39.776C162.299 39.088 161.339 38.744 160.203 38.744ZM181.24 32.192V50H179.608V47.504C179.096 48.352 178.416 49 177.568 49.448C176.736 49.896 175.792 50.12 174.736 50.12C173.552 50.12 172.48 49.848 171.52 49.304C170.56 48.76 169.808 48 169.264 47.024C168.72 46.048 168.448 44.936 168.448 43.688C168.448 42.44 168.72 41.328 169.264 40.352C169.808 39.376 170.56 38.624 171.52 38.096C172.48 37.552 173.552 37.28 174.736 37.28C175.76 37.28 176.68 37.496 177.496 37.928C178.328 38.344 179.008 38.96 179.536 39.776V32.192H181.24ZM174.88 48.608C175.76 48.608 176.552 48.408 177.256 48.008C177.976 47.592 178.536 47.008 178.936 46.256C179.352 45.504 179.56 44.648 179.56 43.688C179.56 42.728 179.352 41.872 178.936 41.12C178.536 40.368 177.976 39.792 177.256 39.392C176.552 38.976 175.76 38.768 174.88 38.768C173.984 38.768 173.176 38.976 172.456 39.392C171.752 39.792 171.192 40.368 170.776 41.12C170.376 41.872 170.176 42.728 170.176 43.688C170.176 44.648 170.376 45.504 170.776 46.256C171.192 47.008 171.752 47.592 172.456 48.008C173.176 48.408 173.984 48.608 174.88 48.608ZM197.505 32.192V50H195.873V47.504C195.361 48.352 194.681 49 193.833 49.448C193.001 49.896 192.057 50.12 191.001 50.12C189.817 50.12 188.745 49.848 187.785 49.304C186.825 48.76 186.073 48 185.529 47.024C184.985 46.048 184.713 44.936 184.713 43.688C184.713 42.44 184.985 41.328 185.529 40.352C186.073 39.376 186.825 38.624 187.785 38.096C188.745 37.552 189.817 37.28 191.001 37.28C192.025 37.28 192.945 37.496 193.761 37.928C194.593 38.344 195.273 38.96 195.801 39.776V32.192H197.505ZM191.145 48.608C192.025 48.608 192.817 48.408 193.521 48.008C194.241 47.592 194.801 47.008 195.201 46.256C195.617 45.504 195.825 44.648 195.825 43.688C195.825 42.728 195.617 41.872 195.201 41.12C194.801 40.368 194.241 39.792 193.521 39.392C192.817 38.976 192.025 38.768 191.145 38.768C190.249 38.768 189.441 38.976 188.721 39.392C188.017 39.792 187.457 40.368 187.041 41.12C186.641 41.872 186.441 42.728 186.441 43.688C186.441 44.648 186.641 45.504 187.041 46.256C187.457 47.008 188.017 47.592 188.721 48.008C189.441 48.408 190.249 48.608 191.145 48.608ZM202.251 37.376H203.955V50H202.251V37.376ZM203.115 34.616C202.763 34.616 202.467 34.496 202.227 34.256C201.987 34.016 201.867 33.728 201.867 33.392C201.867 33.072 201.987 32.792 202.227 32.552C202.467 32.312 202.763 32.192 203.115 32.192C203.467 32.192 203.763 32.312 204.003 32.552C204.243 32.776 204.363 33.048 204.363 33.368C204.363 33.72 204.243 34.016 204.003 34.256C203.763 34.496 203.467 34.616 203.115 34.616ZM215.128 37.28C216.712 37.28 217.968 37.744 218.896 38.672C219.84 39.584 220.312 40.92 220.312 42.68V50H218.608V42.848C218.608 41.536 218.28 40.536 217.624 39.848C216.968 39.16 216.032 38.816 214.816 38.816C213.456 38.816 212.376 39.224 211.576 40.04C210.792 40.84 210.4 41.952 210.4 43.376V50H208.696V37.376H210.328V39.704C210.792 38.936 211.432 38.344 212.248 37.928C213.08 37.496 214.04 37.28 215.128 37.28ZM236.673 37.376V48.464C236.673 50.608 236.145 52.192 235.089 53.216C234.049 54.256 232.473 54.776 230.361 54.776C229.193 54.776 228.081 54.6 227.025 54.248C225.985 53.912 225.137 53.44 224.481 52.832L225.345 51.536C225.953 52.08 226.689 52.504 227.553 52.808C228.433 53.112 229.353 53.264 230.313 53.264C231.913 53.264 233.089 52.888 233.841 52.136C234.593 51.4 234.969 50.248 234.969 48.68V47.072C234.441 47.872 233.745 48.48 232.881 48.896C232.033 49.312 231.089 49.52 230.049 49.52C228.865 49.52 227.785 49.264 226.809 48.752C225.849 48.224 225.089 47.496 224.529 46.568C223.985 45.624 223.713 44.56 223.713 43.376C223.713 42.192 223.985 41.136 224.529 40.208C225.089 39.28 225.849 38.56 226.809 38.048C227.769 37.536 228.849 37.28 230.049 37.28C231.121 37.28 232.089 37.496 232.953 37.928C233.817 38.36 234.513 38.984 235.041 39.8V37.376H236.673ZM230.217 48.008C231.129 48.008 231.953 47.816 232.689 47.432C233.425 47.032 233.993 46.48 234.393 45.776C234.809 45.072 235.017 44.272 235.017 43.376C235.017 42.48 234.809 41.688 234.393 41C233.993 40.296 233.425 39.752 232.689 39.368C231.969 38.968 231.145 38.768 230.217 38.768C229.305 38.768 228.481 38.96 227.745 39.344C227.025 39.728 226.457 40.272 226.041 40.976C225.641 41.68 225.441 42.48 225.441 43.376C225.441 44.272 225.641 45.072 226.041 45.776C226.457 46.48 227.025 47.032 227.745 47.432C228.481 47.816 229.305 48.008 230.217 48.008Z" fill="black"/>
</g>
<defs>
<filter id="filter0_d_1_18" x="0.859985" y="13.856" width="105.149" height="44.528" filterUnits="userSpaceOnUse" color-interpolation-filters="sRGB">
<feFlood flood-opacity="0" result="BackgroundImageFix"/>
<feColorMatrix in="SourceAlpha" type="matrix" values="0 0 0 0 0 0 0 0 0 0 0 0 0 0 0 0 0 0 127 0" result="hardAlpha"/>
<feOffset dy="4"/>
<feGaussianBlur stdDeviation="2"/>
<feComposite in2="hardAlpha" operator="out"/>
<feColorMatrix type="matrix" values="0 0 0 0 0 0 0 0 0 0 0 0 0 0 0 0 0 0 0.25 0"/>
<feBlend mode="normal" in2="BackgroundImageFix" result="effect1_dropShadow_1_18"/>
<feBlend mode="normal" in="SourceGraphic" in2="effect1_dropShadow_1_18" result="shape"/>
</filter>
<filter id="filter1_d_1_18" x="99.5" y="13.664" width="141.173" height="49.112" filterUnits="userSpaceOnUse" color-interpolation-filters="sRGB">
<feFlood flood-opacity="0" result="BackgroundImageFix"/>
<feColorMatrix in="SourceAlpha" type="matrix" values="0 0 0 0 0 0 0 0 0 0 0 0 0 0 0 0 0 0 127 0" result="hardAlpha"/>
<feOffset dy="4"/>
<feGaussianBlur stdDeviation="2"/>
<feComposite in2="hardAlpha" operator="out"/>
<feColorMatrix type="matrix" values="0 0 0 0 0 0 0 0 0 0 0 0 0 0 0 0 0 0 0.25 0"/>
<feBlend mode="normal" in2="BackgroundImageFix" result="effect1_dropShadow_1_18"/>
<feBlend mode="normal" in="SourceGraphic" in2="effect1_dropShadow_1_18" result="shape"/>
</filter>
</defs>
</svg>
